<mxfile host="app.diagrams.net" agent="Mozilla/5.0 (Macintosh; Intel Mac OS X 10_15_7) AppleWebKit/537.36 (KHTML, like Gecko) Chrome/136.0.0.0 Safari/537.36 Edg/136.0.0.0" version="27.0.6">
  <diagram id="z6Ql2LUkFT9Ckbzt-jEz" name="第 1 页">
    <mxGraphModel dx="2493" dy="689" grid="1" gridSize="10" guides="1" tooltips="1" connect="1" arrows="1" fold="1" page="1" pageScale="1" pageWidth="827" pageHeight="1169" math="0" shadow="0">
      <root>
        <mxCell id="0" />
        <mxCell id="1" parent="0" />
        <mxCell id="hAyUHEkFQbPn4te4HX6G-1" value="" style="fillColor=none;strokeColor=#5A6C86;verticalAlign=top;fontStyle=0;fontColor=#5A6C86;whiteSpace=wrap;html=1;strokeWidth=5;" parent="1" vertex="1">
          <mxGeometry x="650" y="1240" width="980" height="1520" as="geometry" />
        </mxCell>
        <mxCell id="hAyUHEkFQbPn4te4HX6G-2" value="" style="fillColor=none;strokeColor=#5A6C86;verticalAlign=top;fontStyle=0;fontColor=#5A6C86;whiteSpace=wrap;html=1;" parent="1" vertex="1">
          <mxGeometry x="720" y="2208" width="150" height="230" as="geometry" />
        </mxCell>
        <mxCell id="hAyUHEkFQbPn4te4HX6G-5" value="" style="fillColor=none;strokeColor=#5A6C86;verticalAlign=top;fontStyle=0;fontColor=#5A6C86;whiteSpace=wrap;html=1;strokeWidth=5;" parent="1" vertex="1">
          <mxGeometry x="2010" y="1312" width="200" height="800" as="geometry" />
        </mxCell>
        <mxCell id="hAyUHEkFQbPn4te4HX6G-6" value="服务端打点平台" style="fillColor=none;strokeColor=#5A6C86;verticalAlign=top;fontStyle=0;fontColor=#5A6C86;whiteSpace=wrap;html=1;strokeWidth=5;" parent="1" vertex="1">
          <mxGeometry x="2295" y="1555" width="1105" height="1115" as="geometry" />
        </mxCell>
        <mxCell id="hAyUHEkFQbPn4te4HX6G-7" value="" style="fillColor=none;strokeColor=#5A6C86;verticalAlign=top;fontStyle=0;fontColor=#5A6C86;whiteSpace=wrap;html=1;" parent="1" vertex="1">
          <mxGeometry x="3560" y="1901" width="150" height="470" as="geometry" />
        </mxCell>
        <mxCell id="hAyUHEkFQbPn4te4HX6G-8" value="" style="edgeStyle=orthogonalEdgeStyle;rounded=0;orthogonalLoop=1;jettySize=auto;html=1;entryX=0;entryY=0.5;entryDx=0;entryDy=0;exitX=0.5;exitY=1;exitDx=0;exitDy=0;" parent="1" source="hAyUHEkFQbPn4te4HX6G-9" target="hAyUHEkFQbPn4te4HX6G-12" edge="1">
          <mxGeometry relative="1" as="geometry" />
        </mxCell>
        <mxCell id="hAyUHEkFQbPn4te4HX6G-9" value="App" style="strokeColor=#dddddd;shadow=1;strokeWidth=1;rounded=1;absoluteArcSize=1;arcSize=2;labelPosition=center;verticalLabelPosition=middle;align=center;verticalAlign=bottom;spacingLeft=0;fontColor=#999999;fontSize=12;whiteSpace=wrap;spacingBottom=2;html=1;" parent="1" vertex="1">
          <mxGeometry x="425" y="2368" width="70" height="85" as="geometry" />
        </mxCell>
        <mxCell id="hAyUHEkFQbPn4te4HX6G-10" value="" style="sketch=0;dashed=0;connectable=0;html=1;fillColor=#757575;strokeColor=none;shape=mxgraph.gcp2.phone;part=1;" parent="hAyUHEkFQbPn4te4HX6G-9" vertex="1">
          <mxGeometry x="0.5" width="32" height="50" relative="1" as="geometry">
            <mxPoint x="-16" y="10" as="offset" />
          </mxGeometry>
        </mxCell>
        <mxCell id="hAyUHEkFQbPn4te4HX6G-11" value="" style="edgeStyle=orthogonalEdgeStyle;rounded=0;orthogonalLoop=1;jettySize=auto;html=1;entryX=0;entryY=0.5;entryDx=0;entryDy=0;" parent="1" source="hAyUHEkFQbPn4te4HX6G-12" target="hAyUHEkFQbPn4te4HX6G-23" edge="1">
          <mxGeometry relative="1" as="geometry" />
        </mxCell>
        <mxCell id="hAyUHEkFQbPn4te4HX6G-12" value="guru打点服务&lt;div&gt;——Nginx&lt;/div&gt;" style="rounded=0;whiteSpace=wrap;html=1;fillColor=#60a917;strokeColor=#2D7600;fontColor=#ffffff;" parent="1" vertex="1">
          <mxGeometry x="733" y="2594.5" width="120" height="60" as="geometry" />
        </mxCell>
        <mxCell id="hAyUHEkFQbPn4te4HX6G-13" value="" style="rounded=0;orthogonalLoop=1;jettySize=auto;html=1;entryX=0;entryY=0.5;entryDx=0;entryDy=0;exitX=1;exitY=0.5;exitDx=0;exitDy=0;edgeStyle=orthogonalEdgeStyle;" parent="1" source="hAyUHEkFQbPn4te4HX6G-54" target="hAyUHEkFQbPn4te4HX6G-26" edge="1">
          <mxGeometry relative="1" as="geometry">
            <mxPoint x="2236" y="2102.57" as="sourcePoint" />
          </mxGeometry>
        </mxCell>
        <mxCell id="hAyUHEkFQbPn4te4HX6G-14" value="" style="edgeStyle=orthogonalEdgeStyle;rounded=0;orthogonalLoop=1;jettySize=auto;html=1;exitX=0.5;exitY=0;exitDx=0;exitDy=0;entryX=0.5;entryY=1;entryDx=0;entryDy=0;" parent="1" source="hAyUHEkFQbPn4te4HX6G-54" target="hAyUHEkFQbPn4te4HX6G-17" edge="1">
          <mxGeometry relative="1" as="geometry" />
        </mxCell>
        <mxCell id="hAyUHEkFQbPn4te4HX6G-15" value="" style="rounded=0;orthogonalLoop=1;jettySize=auto;html=1;exitX=1;exitY=0.5;exitDx=0;exitDy=0;entryX=0;entryY=0.5;entryDx=0;entryDy=0;" parent="1" source="hAyUHEkFQbPn4te4HX6G-26" target="hAyUHEkFQbPn4te4HX6G-92" edge="1">
          <mxGeometry relative="1" as="geometry">
            <mxPoint x="1791" y="1800" as="sourcePoint" />
            <mxPoint x="1911" y="2110" as="targetPoint" />
          </mxGeometry>
        </mxCell>
        <mxCell id="hAyUHEkFQbPn4te4HX6G-16" value="" style="edgeStyle=orthogonalEdgeStyle;rounded=0;orthogonalLoop=1;jettySize=auto;html=1;" parent="1" source="hAyUHEkFQbPn4te4HX6G-17" target="hAyUHEkFQbPn4te4HX6G-19" edge="1">
          <mxGeometry relative="1" as="geometry" />
        </mxCell>
        <mxCell id="hAyUHEkFQbPn4te4HX6G-17" value="guru打点服务&lt;div&gt;——Sink程序&lt;/div&gt;" style="rounded=0;whiteSpace=wrap;html=1;fillColor=#60a917;strokeColor=#2D7600;fontColor=#ffffff;" parent="1" vertex="1">
          <mxGeometry x="1824" y="2248" width="120" height="60" as="geometry" />
        </mxCell>
        <mxCell id="hAyUHEkFQbPn4te4HX6G-18" value="" style="edgeStyle=orthogonalEdgeStyle;rounded=0;orthogonalLoop=1;jettySize=auto;html=1;" parent="1" source="hAyUHEkFQbPn4te4HX6G-19" target="hAyUHEkFQbPn4te4HX6G-95" edge="1">
          <mxGeometry relative="1" as="geometry" />
        </mxCell>
        <mxCell id="hAyUHEkFQbPn4te4HX6G-19" value="GCS" style="rounded=0;whiteSpace=wrap;html=1;" parent="1" vertex="1">
          <mxGeometry x="1825" y="1615" width="120" height="60" as="geometry" />
        </mxCell>
        <mxCell id="hAyUHEkFQbPn4te4HX6G-20" value="" style="rounded=0;orthogonalLoop=1;jettySize=auto;html=1;exitX=1;exitY=0.5;exitDx=0;exitDy=0;entryX=0;entryY=0.5;entryDx=0;entryDy=0;" parent="1" source="hAyUHEkFQbPn4te4HX6G-117" target="hAyUHEkFQbPn4te4HX6G-94" edge="1">
          <mxGeometry relative="1" as="geometry">
            <mxPoint x="2228.0476190476193" y="1143" as="targetPoint" />
          </mxGeometry>
        </mxCell>
        <mxCell id="hAyUHEkFQbPn4te4HX6G-21" value="&lt;div&gt;服务端打点平台&lt;/div&gt;——分发worker" style="rounded=0;whiteSpace=wrap;html=1;fillColor=#60a917;strokeColor=#2D7600;fontColor=#ffffff;" parent="1" vertex="1">
          <mxGeometry x="2744" y="1773" width="120" height="60" as="geometry" />
        </mxCell>
        <mxCell id="hAyUHEkFQbPn4te4HX6G-22" value="Kafka-AWS" style="fillColor=none;strokeColor=#5A6C86;verticalAlign=top;fontStyle=0;fontColor=#5A6C86;whiteSpace=wrap;html=1;" parent="1" vertex="1">
          <mxGeometry x="919.5" y="2566" width="150" height="100" as="geometry" />
        </mxCell>
        <mxCell id="hAyUHEkFQbPn4te4HX6G-23" value="Topic-总" style="rounded=0;whiteSpace=wrap;html=1;movable=1;resizable=1;rotatable=1;deletable=1;editable=1;locked=0;connectable=1;" parent="1" vertex="1">
          <mxGeometry x="944.5" y="2609.5" width="100" height="30" as="geometry" />
        </mxCell>
        <mxCell id="hAyUHEkFQbPn4te4HX6G-24" style="edgeStyle=orthogonalEdgeStyle;rounded=0;orthogonalLoop=1;jettySize=auto;html=1;exitX=0.5;exitY=1;exitDx=0;exitDy=0;" parent="1" source="hAyUHEkFQbPn4te4HX6G-23" target="hAyUHEkFQbPn4te4HX6G-23" edge="1">
          <mxGeometry relative="1" as="geometry" />
        </mxCell>
        <mxCell id="hAyUHEkFQbPn4te4HX6G-25" style="edgeStyle=orthogonalEdgeStyle;rounded=0;orthogonalLoop=1;jettySize=auto;html=1;exitX=0.5;exitY=1;exitDx=0;exitDy=0;" parent="1" source="hAyUHEkFQbPn4te4HX6G-23" target="hAyUHEkFQbPn4te4HX6G-23" edge="1">
          <mxGeometry relative="1" as="geometry" />
        </mxCell>
        <mxCell id="hAyUHEkFQbPn4te4HX6G-26" value="Flink Jobs" style="fillColor=none;strokeColor=#5A6C86;verticalAlign=top;fontStyle=0;fontColor=#5A6C86;whiteSpace=wrap;html=1;dashed=1;" parent="1" vertex="1">
          <mxGeometry x="2355" y="2138" width="130" height="160" as="geometry" />
        </mxCell>
        <mxCell id="hAyUHEkFQbPn4te4HX6G-27" value="Job-A" style="rounded=0;whiteSpace=wrap;html=1;movable=1;resizable=1;rotatable=1;deletable=1;editable=1;locked=0;connectable=1;fillColor=#60a917;strokeColor=#2D7600;fontColor=#ffffff;" parent="1" vertex="1">
          <mxGeometry x="2370" y="2168" width="100" height="30" as="geometry" />
        </mxCell>
        <mxCell id="hAyUHEkFQbPn4te4HX6G-28" value="Job-B" style="rounded=0;whiteSpace=wrap;html=1;movable=1;resizable=1;rotatable=1;deletable=1;editable=1;locked=0;connectable=1;fillColor=#60a917;strokeColor=#2D7600;fontColor=#ffffff;" parent="1" vertex="1">
          <mxGeometry x="2370" y="2208" width="100" height="30" as="geometry" />
        </mxCell>
        <mxCell id="hAyUHEkFQbPn4te4HX6G-29" value="……" style="rounded=0;whiteSpace=wrap;html=1;movable=1;resizable=1;rotatable=1;deletable=1;editable=1;locked=0;connectable=1;fillColor=#60a917;strokeColor=#2D7600;fontColor=#ffffff;" parent="1" vertex="1">
          <mxGeometry x="2370" y="2248" width="100" height="30" as="geometry" />
        </mxCell>
        <mxCell id="hAyUHEkFQbPn4te4HX6G-30" value="" style="rounded=0;orthogonalLoop=1;jettySize=auto;html=1;exitX=1;exitY=0.5;exitDx=0;exitDy=0;entryX=0;entryY=0.5;entryDx=0;entryDy=0;" parent="1" source="hAyUHEkFQbPn4te4HX6G-21" target="hAyUHEkFQbPn4te4HX6G-70" edge="1">
          <mxGeometry relative="1" as="geometry">
            <mxPoint x="2589.0000000000005" y="454" as="sourcePoint" />
            <mxPoint x="3528" y="1110" as="targetPoint" />
          </mxGeometry>
        </mxCell>
        <mxCell id="hAyUHEkFQbPn4te4HX6G-31" value="&lt;div&gt;服务端打点平台&lt;/div&gt;——分发worker" style="rounded=0;whiteSpace=wrap;html=1;fillColor=#60a917;strokeColor=#2D7600;fontColor=#ffffff;" parent="1" vertex="1">
          <mxGeometry x="2744" y="1864.5" width="120" height="60" as="geometry" />
        </mxCell>
        <mxCell id="hAyUHEkFQbPn4te4HX6G-32" value="" style="rounded=0;orthogonalLoop=1;jettySize=auto;html=1;exitX=1;exitY=0.5;exitDx=0;exitDy=0;entryX=0;entryY=0.5;entryDx=0;entryDy=0;" parent="1" source="hAyUHEkFQbPn4te4HX6G-91" target="hAyUHEkFQbPn4te4HX6G-21" edge="1">
          <mxGeometry relative="1" as="geometry">
            <mxPoint x="2300" y="1213" as="sourcePoint" />
            <mxPoint x="2534" y="1214" as="targetPoint" />
          </mxGeometry>
        </mxCell>
        <mxCell id="hAyUHEkFQbPn4te4HX6G-33" value="" style="rounded=0;orthogonalLoop=1;jettySize=auto;html=1;exitX=1;exitY=0.5;exitDx=0;exitDy=0;entryX=0;entryY=0.5;entryDx=0;entryDy=0;" parent="1" source="hAyUHEkFQbPn4te4HX6G-92" target="hAyUHEkFQbPn4te4HX6G-31" edge="1">
          <mxGeometry relative="1" as="geometry">
            <mxPoint x="2349" y="1223" as="sourcePoint" />
            <mxPoint x="2179.0000000000005" y="1471.0000000000002" as="targetPoint" />
          </mxGeometry>
        </mxCell>
        <mxCell id="hAyUHEkFQbPn4te4HX6G-34" value="" style="rounded=0;orthogonalLoop=1;jettySize=auto;html=1;exitX=1;exitY=0.5;exitDx=0;exitDy=0;entryX=0;entryY=0.5;entryDx=0;entryDy=0;" parent="1" source="hAyUHEkFQbPn4te4HX6G-94" target="hAyUHEkFQbPn4te4HX6G-131" edge="1">
          <mxGeometry relative="1" as="geometry">
            <mxPoint x="2560" y="745" as="sourcePoint" />
            <mxPoint x="2659" y="560" as="targetPoint" />
          </mxGeometry>
        </mxCell>
        <mxCell id="hAyUHEkFQbPn4te4HX6G-35" value="&lt;div&gt;服务端打点平台&lt;/div&gt;——调度SQL？" style="rounded=0;whiteSpace=wrap;html=1;fillColor=#60a917;strokeColor=#2D7600;fontColor=#ffffff;" parent="1" vertex="1">
          <mxGeometry x="2360" y="1824.5" width="120" height="60" as="geometry" />
        </mxCell>
        <mxCell id="hAyUHEkFQbPn4te4HX6G-36" value="" style="edgeStyle=orthogonalEdgeStyle;rounded=0;orthogonalLoop=1;jettySize=auto;html=1;entryX=0;entryY=0.5;entryDx=0;entryDy=0;exitX=1;exitY=0.5;exitDx=0;exitDy=0;" parent="1" source="hAyUHEkFQbPn4te4HX6G-95" target="hAyUHEkFQbPn4te4HX6G-35" edge="1">
          <mxGeometry relative="1" as="geometry">
            <mxPoint x="1635" y="830" as="sourcePoint" />
            <mxPoint x="1635" y="890" as="targetPoint" />
          </mxGeometry>
        </mxCell>
        <mxCell id="hAyUHEkFQbPn4te4HX6G-37" value="" style="rounded=0;orthogonalLoop=1;jettySize=auto;html=1;entryX=0;entryY=0.5;entryDx=0;entryDy=0;exitX=1;exitY=0.5;exitDx=0;exitDy=0;" parent="1" source="hAyUHEkFQbPn4te4HX6G-35" target="hAyUHEkFQbPn4te4HX6G-91" edge="1">
          <mxGeometry relative="1" as="geometry">
            <mxPoint x="1165" y="770" as="sourcePoint" />
            <mxPoint x="1306" y="920" as="targetPoint" />
          </mxGeometry>
        </mxCell>
        <mxCell id="hAyUHEkFQbPn4te4HX6G-38" value="" style="rounded=0;orthogonalLoop=1;jettySize=auto;html=1;exitX=1;exitY=0.5;exitDx=0;exitDy=0;entryX=0;entryY=0.5;entryDx=0;entryDy=0;" parent="1" source="hAyUHEkFQbPn4te4HX6G-35" target="hAyUHEkFQbPn4te4HX6G-92" edge="1">
          <mxGeometry relative="1" as="geometry">
            <mxPoint x="1426" y="920" as="sourcePoint" />
            <mxPoint x="1515" y="682" as="targetPoint" />
          </mxGeometry>
        </mxCell>
        <mxCell id="hAyUHEkFQbPn4te4HX6G-39" value="guru打点服务&lt;div&gt;——消息分发&lt;/div&gt;" style="rounded=0;whiteSpace=wrap;html=1;fillColor=#60a917;strokeColor=#2D7600;fontColor=#ffffff;" parent="1" vertex="1">
          <mxGeometry x="1140.5" y="2585.5" width="120" height="60" as="geometry" />
        </mxCell>
        <mxCell id="hAyUHEkFQbPn4te4HX6G-40" value="" style="rounded=0;orthogonalLoop=1;jettySize=auto;html=1;entryX=0;entryY=0.5;entryDx=0;entryDy=0;exitX=1;exitY=0.5;exitDx=0;exitDy=0;" parent="1" source="hAyUHEkFQbPn4te4HX6G-22" target="hAyUHEkFQbPn4te4HX6G-39" edge="1">
          <mxGeometry relative="1" as="geometry">
            <mxPoint x="657.5" y="2659.5" as="sourcePoint" />
            <mxPoint x="762.5" y="2624.5" as="targetPoint" />
          </mxGeometry>
        </mxCell>
        <mxCell id="hAyUHEkFQbPn4te4HX6G-41" value="" style="rounded=0;orthogonalLoop=1;jettySize=auto;html=1;exitX=1;exitY=0.5;exitDx=0;exitDy=0;entryX=0;entryY=0.5;entryDx=0;entryDy=0;" parent="1" source="hAyUHEkFQbPn4te4HX6G-39" target="hAyUHEkFQbPn4te4HX6G-54" edge="1">
          <mxGeometry relative="1" as="geometry">
            <mxPoint x="545" y="1989" as="sourcePoint" />
            <mxPoint x="650" y="1989" as="targetPoint" />
          </mxGeometry>
        </mxCell>
        <mxCell id="hAyUHEkFQbPn4te4HX6G-42" value="第三方平台—ua" style="fillColor=none;strokeColor=#5A6C86;verticalAlign=top;fontStyle=0;fontColor=#5A6C86;whiteSpace=wrap;html=1;" parent="1" vertex="1">
          <mxGeometry x="360" y="1270" width="180" height="220" as="geometry" />
        </mxCell>
        <mxCell id="hAyUHEkFQbPn4te4HX6G-43" value="applovin" style="rounded=0;whiteSpace=wrap;html=1;fillColor=#0050ef;fontColor=#ffffff;strokeColor=#001DBC;" parent="1" vertex="1">
          <mxGeometry x="390" y="1355" width="120" height="30" as="geometry" />
        </mxCell>
        <mxCell id="hAyUHEkFQbPn4te4HX6G-44" value="apple_search" style="rounded=0;whiteSpace=wrap;html=1;fillColor=#0050ef;fontColor=#ffffff;strokeColor=#001DBC;" parent="1" vertex="1">
          <mxGeometry x="390" y="1315" width="120" height="30" as="geometry" />
        </mxCell>
        <mxCell id="hAyUHEkFQbPn4te4HX6G-45" value="bigo" style="rounded=0;whiteSpace=wrap;html=1;fillColor=#0050ef;fontColor=#ffffff;strokeColor=#001DBC;" parent="1" vertex="1">
          <mxGeometry x="390" y="1395" width="120" height="30" as="geometry" />
        </mxCell>
        <mxCell id="hAyUHEkFQbPn4te4HX6G-46" value="……" style="rounded=0;whiteSpace=wrap;html=1;fillColor=#0050ef;fontColor=#ffffff;strokeColor=#001DBC;" parent="1" vertex="1">
          <mxGeometry x="390" y="1435" width="120" height="30" as="geometry" />
        </mxCell>
        <mxCell id="hAyUHEkFQbPn4te4HX6G-47" value="调度任务" style="fillColor=none;strokeColor=#5A6C86;verticalAlign=top;fontStyle=0;fontColor=#5A6C86;whiteSpace=wrap;html=1;" parent="1" vertex="1">
          <mxGeometry x="1365" y="1320" width="180" height="970" as="geometry" />
        </mxCell>
        <mxCell id="hAyUHEkFQbPn4te4HX6G-48" value="每日收入数据拉取任务" style="rounded=0;whiteSpace=wrap;html=1;fillColor=#60a917;fontColor=#ffffff;strokeColor=#2D7600;" parent="1" vertex="1">
          <mxGeometry x="1395" y="1508" width="120" height="30" as="geometry" />
        </mxCell>
        <mxCell id="hAyUHEkFQbPn4te4HX6G-49" value="每日ua拉取任务（15）" style="rounded=0;whiteSpace=wrap;html=1;fillColor=#60a917;fontColor=#ffffff;strokeColor=#2D7600;" parent="1" vertex="1">
          <mxGeometry x="1395" y="1365" width="120" height="30" as="geometry" />
        </mxCell>
        <mxCell id="hAyUHEkFQbPn4te4HX6G-50" value="每日崩溃冷启动数据拉取任务" style="rounded=0;whiteSpace=wrap;html=1;fillColor=#60a917;fontColor=#ffffff;strokeColor=#2D7600;" parent="1" vertex="1">
          <mxGeometry x="1395" y="1822.75" width="120" height="30" as="geometry" />
        </mxCell>
        <mxCell id="hAyUHEkFQbPn4te4HX6G-51" value="每日汇率数据拉取任务" style="rounded=0;whiteSpace=wrap;html=1;fillColor=#60a917;fontColor=#ffffff;strokeColor=#2D7600;" parent="1" vertex="1">
          <mxGeometry x="1395" y="1640" width="120" height="30" as="geometry" />
        </mxCell>
        <mxCell id="hAyUHEkFQbPn4te4HX6G-52" value="每日adjust回调日志上传任务" style="rounded=0;whiteSpace=wrap;html=1;fillColor=#60a917;fontColor=#ffffff;strokeColor=#2D7600;" parent="1" vertex="1">
          <mxGeometry x="1395" y="1988" width="120" height="30" as="geometry" />
        </mxCell>
        <mxCell id="hAyUHEkFQbPn4te4HX6G-53" value="" style="rounded=0;orthogonalLoop=1;jettySize=auto;html=1;exitX=1;exitY=0.5;exitDx=0;exitDy=0;" parent="1" source="hAyUHEkFQbPn4te4HX6G-42" target="hAyUHEkFQbPn4te4HX6G-49" edge="1">
          <mxGeometry relative="1" as="geometry">
            <mxPoint x="1389" y="1276" as="sourcePoint" />
            <mxPoint x="1494" y="1250" as="targetPoint" />
          </mxGeometry>
        </mxCell>
        <mxCell id="hAyUHEkFQbPn4te4HX6G-54" value="Kafka-AWS" style="fillColor=none;strokeColor=#5A6C86;verticalAlign=top;fontStyle=0;fontColor=#5A6C86;whiteSpace=wrap;html=1;" parent="1" vertex="1">
          <mxGeometry x="1809" y="2531.5" width="150" height="168" as="geometry" />
        </mxCell>
        <mxCell id="hAyUHEkFQbPn4te4HX6G-55" style="edgeStyle=orthogonalEdgeStyle;rounded=0;orthogonalLoop=1;jettySize=auto;html=1;exitX=0.5;exitY=1;exitDx=0;exitDy=0;" parent="1" edge="1">
          <mxGeometry relative="1" as="geometry">
            <mxPoint x="1424" y="1925" as="sourcePoint" />
            <mxPoint x="1424" y="1925" as="targetPoint" />
          </mxGeometry>
        </mxCell>
        <mxCell id="hAyUHEkFQbPn4te4HX6G-56" style="edgeStyle=orthogonalEdgeStyle;rounded=0;orthogonalLoop=1;jettySize=auto;html=1;exitX=0.5;exitY=1;exitDx=0;exitDy=0;" parent="1" edge="1">
          <mxGeometry relative="1" as="geometry">
            <mxPoint x="1424" y="1925" as="sourcePoint" />
            <mxPoint x="1424" y="1925" as="targetPoint" />
          </mxGeometry>
        </mxCell>
        <mxCell id="hAyUHEkFQbPn4te4HX6G-57" value="Topic-App-2" style="rounded=0;whiteSpace=wrap;html=1;movable=1;resizable=1;rotatable=1;deletable=1;editable=1;locked=0;connectable=1;" parent="1" vertex="1">
          <mxGeometry x="1834" y="2616.5" width="100" height="30" as="geometry" />
        </mxCell>
        <mxCell id="hAyUHEkFQbPn4te4HX6G-58" value="……" style="rounded=0;whiteSpace=wrap;html=1;movable=1;resizable=1;rotatable=1;deletable=1;editable=1;locked=0;connectable=1;" parent="1" vertex="1">
          <mxGeometry x="1834" y="2656.5" width="100" height="30" as="geometry" />
        </mxCell>
        <mxCell id="hAyUHEkFQbPn4te4HX6G-59" value="Topic-App-1" style="rounded=0;whiteSpace=wrap;html=1;movable=1;resizable=1;rotatable=1;deletable=1;editable=1;locked=0;connectable=1;" parent="1" vertex="1">
          <mxGeometry x="1834" y="2574" width="100" height="30" as="geometry" />
        </mxCell>
        <mxCell id="hAyUHEkFQbPn4te4HX6G-60" value="" style="edgeStyle=orthogonalEdgeStyle;rounded=0;orthogonalLoop=1;jettySize=auto;html=1;exitX=1;exitY=0.5;exitDx=0;exitDy=0;entryX=0;entryY=0.5;entryDx=0;entryDy=0;" parent="1" source="hAyUHEkFQbPn4te4HX6G-47" target="hAyUHEkFQbPn4te4HX6G-19" edge="1">
          <mxGeometry relative="1" as="geometry">
            <mxPoint x="1765" y="1370" as="sourcePoint" />
            <mxPoint x="2023" y="1370" as="targetPoint" />
          </mxGeometry>
        </mxCell>
        <mxCell id="hAyUHEkFQbPn4te4HX6G-61" value="中台数据库&lt;div&gt;（每个项目一个数据库）&lt;/div&gt;" style="rounded=0;whiteSpace=wrap;html=1;movable=1;resizable=1;rotatable=1;deletable=1;editable=1;locked=0;connectable=1;" parent="1" vertex="1">
          <mxGeometry x="982" y="2229" width="138" height="30" as="geometry" />
        </mxCell>
        <mxCell id="hAyUHEkFQbPn4te4HX6G-62" value="中台adjus回调服务" style="rounded=0;whiteSpace=wrap;html=1;fillColor=#60a917;strokeColor=#2D7600;fontColor=#ffffff;" parent="1" vertex="1">
          <mxGeometry x="735" y="1976.5" width="120" height="60" as="geometry" />
        </mxCell>
        <mxCell id="hAyUHEkFQbPn4te4HX6G-63" value="push任务" style="rounded=0;whiteSpace=wrap;html=1;fillColor=#60a917;strokeColor=#2D7600;fontColor=#ffffff;" parent="1" vertex="1">
          <mxGeometry x="735" y="1898" width="120" height="60" as="geometry" />
        </mxCell>
        <mxCell id="hAyUHEkFQbPn4te4HX6G-64" value="" style="rounded=0;orthogonalLoop=1;jettySize=auto;html=1;exitX=1;exitY=0.5;exitDx=0;exitDy=0;entryX=0;entryY=0.5;entryDx=0;entryDy=0;" parent="1" source="hAyUHEkFQbPn4te4HX6G-61" target="hAyUHEkFQbPn4te4HX6G-160" edge="1">
          <mxGeometry relative="1" as="geometry">
            <mxPoint x="1175" y="1691.91" as="sourcePoint" />
            <mxPoint x="1550" y="1950" as="targetPoint" />
          </mxGeometry>
        </mxCell>
        <mxCell id="hAyUHEkFQbPn4te4HX6G-65" value="" style="rounded=0;orthogonalLoop=1;jettySize=auto;html=1;entryX=0;entryY=0.5;entryDx=0;entryDy=0;exitX=1;exitY=0.5;exitDx=0;exitDy=0;" parent="1" source="hAyUHEkFQbPn4te4HX6G-112" target="hAyUHEkFQbPn4te4HX6G-52" edge="1">
          <mxGeometry x="0.0018" relative="1" as="geometry">
            <mxPoint x="1712.5" y="1820" as="sourcePoint" />
            <mxPoint x="1785.5" y="1750" as="targetPoint" />
            <mxPoint as="offset" />
          </mxGeometry>
        </mxCell>
        <mxCell id="hAyUHEkFQbPn4te4HX6G-66" value="" style="rounded=0;orthogonalLoop=1;jettySize=auto;html=1;entryX=0;entryY=0.5;entryDx=0;entryDy=0;exitX=1;exitY=0.5;exitDx=0;exitDy=0;" parent="1" source="hAyUHEkFQbPn4te4HX6G-114" target="hAyUHEkFQbPn4te4HX6G-67" edge="1">
          <mxGeometry relative="1" as="geometry">
            <mxPoint x="1722.5" y="1830" as="sourcePoint" />
            <mxPoint x="1795.5" y="1760" as="targetPoint" />
          </mxGeometry>
        </mxCell>
        <mxCell id="hAyUHEkFQbPn4te4HX6G-67" value="每日push日志上传任务" style="rounded=0;whiteSpace=wrap;html=1;fillColor=#60a917;fontColor=#ffffff;strokeColor=#2D7600;" parent="1" vertex="1">
          <mxGeometry x="1395" y="1913" width="120" height="30" as="geometry" />
        </mxCell>
        <mxCell id="hAyUHEkFQbPn4te4HX6G-68" value="google play&lt;div&gt;订单数据接收&lt;/div&gt;" style="rounded=0;whiteSpace=wrap;html=1;fillColor=#60a917;strokeColor=#2D7600;fontColor=#ffffff;" parent="1" vertex="1">
          <mxGeometry x="733.5" y="2134" width="120" height="60" as="geometry" />
        </mxCell>
        <mxCell id="hAyUHEkFQbPn4te4HX6G-69" value="" style="rounded=0;orthogonalLoop=1;jettySize=auto;html=1;entryX=0;entryY=0.5;entryDx=0;entryDy=0;exitX=1;exitY=0.5;exitDx=0;exitDy=0;" parent="1" source="hAyUHEkFQbPn4te4HX6G-68" target="hAyUHEkFQbPn4te4HX6G-61" edge="1">
          <mxGeometry relative="1" as="geometry">
            <mxPoint x="1165" y="2098.16" as="sourcePoint" />
            <mxPoint x="1385" y="2133.16" as="targetPoint" />
          </mxGeometry>
        </mxCell>
        <mxCell id="hAyUHEkFQbPn4te4HX6G-70" value="Kafka-GCP" style="fillColor=none;strokeColor=#5A6C86;verticalAlign=top;fontStyle=0;fontColor=#5A6C86;whiteSpace=wrap;html=1;" parent="1" vertex="1">
          <mxGeometry x="2943" y="1750" width="150" height="220" as="geometry" />
        </mxCell>
        <mxCell id="hAyUHEkFQbPn4te4HX6G-71" value="adjust" style="rounded=0;whiteSpace=wrap;html=1;movable=1;resizable=1;rotatable=1;deletable=1;editable=1;locked=0;connectable=1;" parent="1" vertex="1">
          <mxGeometry x="2968" y="1794.5" width="100" height="30" as="geometry" />
        </mxCell>
        <mxCell id="hAyUHEkFQbPn4te4HX6G-72" value="firebase" style="rounded=0;whiteSpace=wrap;html=1;movable=1;resizable=1;rotatable=1;deletable=1;editable=1;locked=0;connectable=1;" parent="1" vertex="1">
          <mxGeometry x="2968" y="1835" width="100" height="30" as="geometry" />
        </mxCell>
        <mxCell id="hAyUHEkFQbPn4te4HX6G-73" value="castbox" style="rounded=0;whiteSpace=wrap;html=1;movable=1;resizable=1;rotatable=1;deletable=1;editable=1;locked=0;connectable=1;" parent="1" vertex="1">
          <mxGeometry x="2968" y="1875" width="100" height="30" as="geometry" />
        </mxCell>
        <mxCell id="hAyUHEkFQbPn4te4HX6G-74" value="" style="rounded=0;orthogonalLoop=1;jettySize=auto;html=1;exitX=1;exitY=0.5;exitDx=0;exitDy=0;entryX=0;entryY=0.5;entryDx=0;entryDy=0;" parent="1" source="hAyUHEkFQbPn4te4HX6G-71" target="hAyUHEkFQbPn4te4HX6G-76" edge="1">
          <mxGeometry relative="1" as="geometry">
            <mxPoint x="3127" y="1799" as="sourcePoint" />
          </mxGeometry>
        </mxCell>
        <mxCell id="hAyUHEkFQbPn4te4HX6G-75" value="" style="rounded=0;orthogonalLoop=1;jettySize=auto;html=1;entryX=0;entryY=0.5;entryDx=0;entryDy=0;exitX=1;exitY=0.5;exitDx=0;exitDy=0;" parent="1" source="hAyUHEkFQbPn4te4HX6G-76" target="hAyUHEkFQbPn4te4HX6G-77" edge="1">
          <mxGeometry relative="1" as="geometry" />
        </mxCell>
        <mxCell id="hAyUHEkFQbPn4te4HX6G-76" value="&lt;div&gt;服务端打点平台&lt;/div&gt;——执行worker" style="rounded=0;whiteSpace=wrap;html=1;fillColor=#60a917;strokeColor=#2D7600;fontColor=#ffffff;" parent="1" vertex="1">
          <mxGeometry x="3159" y="1718.5" width="120" height="46" as="geometry" />
        </mxCell>
        <mxCell id="hAyUHEkFQbPn4te4HX6G-77" value="adjust平台" style="rounded=0;whiteSpace=wrap;html=1;fillColor=#0050ef;fontColor=#ffffff;strokeColor=#001DBC;" parent="1" vertex="1">
          <mxGeometry x="3575" y="1958" width="120" height="60" as="geometry" />
        </mxCell>
        <mxCell id="hAyUHEkFQbPn4te4HX6G-78" value="" style="rounded=0;orthogonalLoop=1;jettySize=auto;html=1;entryX=0;entryY=0.5;entryDx=0;entryDy=0;exitX=1;exitY=0.5;exitDx=0;exitDy=0;" parent="1" source="hAyUHEkFQbPn4te4HX6G-72" target="hAyUHEkFQbPn4te4HX6G-79" edge="1">
          <mxGeometry relative="1" as="geometry">
            <mxPoint x="3127" y="1839" as="sourcePoint" />
          </mxGeometry>
        </mxCell>
        <mxCell id="hAyUHEkFQbPn4te4HX6G-79" value="&lt;div&gt;服务端打点平台&lt;/div&gt;——执行worker" style="rounded=0;whiteSpace=wrap;html=1;fillColor=#60a917;strokeColor=#2D7600;fontColor=#ffffff;" parent="1" vertex="1">
          <mxGeometry x="3159" y="1801" width="120" height="44" as="geometry" />
        </mxCell>
        <mxCell id="hAyUHEkFQbPn4te4HX6G-80" value="&lt;div&gt;服务端打点平台&lt;/div&gt;——执行worker" style="rounded=0;whiteSpace=wrap;html=1;fillColor=#60a917;strokeColor=#2D7600;fontColor=#ffffff;" parent="1" vertex="1">
          <mxGeometry x="3159" y="1879" width="120" height="44.5" as="geometry" />
        </mxCell>
        <mxCell id="hAyUHEkFQbPn4te4HX6G-81" value="" style="rounded=0;orthogonalLoop=1;jettySize=auto;html=1;entryX=0;entryY=0.5;entryDx=0;entryDy=0;exitX=1;exitY=0.5;exitDx=0;exitDy=0;" parent="1" source="hAyUHEkFQbPn4te4HX6G-73" target="hAyUHEkFQbPn4te4HX6G-80" edge="1">
          <mxGeometry relative="1" as="geometry">
            <mxPoint x="3127" y="1879" as="sourcePoint" />
            <mxPoint x="3206" y="1776" as="targetPoint" />
          </mxGeometry>
        </mxCell>
        <mxCell id="hAyUHEkFQbPn4te4HX6G-82" value="firebase平台" style="rounded=0;whiteSpace=wrap;html=1;fillColor=#0050ef;fontColor=#ffffff;strokeColor=#001DBC;" parent="1" vertex="1">
          <mxGeometry x="3575" y="2060" width="120" height="60" as="geometry" />
        </mxCell>
        <mxCell id="hAyUHEkFQbPn4te4HX6G-83" value="guru打点服务&lt;div&gt;——Nginx&lt;/div&gt;" style="rounded=0;whiteSpace=wrap;html=1;fillColor=#60a917;fontColor=#ffffff;strokeColor=#2D7600;" parent="1" vertex="1">
          <mxGeometry x="3575" y="2160" width="120" height="60" as="geometry" />
        </mxCell>
        <mxCell id="hAyUHEkFQbPn4te4HX6G-84" value="" style="rounded=0;orthogonalLoop=1;jettySize=auto;html=1;entryX=0;entryY=0.5;entryDx=0;entryDy=0;exitX=1;exitY=0.5;exitDx=0;exitDy=0;" parent="1" source="hAyUHEkFQbPn4te4HX6G-80" target="hAyUHEkFQbPn4te4HX6G-83" edge="1">
          <mxGeometry relative="1" as="geometry">
            <mxPoint x="3079" y="2035.47" as="sourcePoint" />
            <mxPoint x="3203" y="2036.47" as="targetPoint" />
          </mxGeometry>
        </mxCell>
        <mxCell id="hAyUHEkFQbPn4te4HX6G-85" value="" style="rounded=0;orthogonalLoop=1;jettySize=auto;html=1;entryX=0;entryY=0.5;entryDx=0;entryDy=0;exitX=1;exitY=0.5;exitDx=0;exitDy=0;" parent="1" source="hAyUHEkFQbPn4te4HX6G-79" target="hAyUHEkFQbPn4te4HX6G-82" edge="1">
          <mxGeometry relative="1" as="geometry">
            <mxPoint x="3169" y="1834" as="sourcePoint" />
            <mxPoint x="3293" y="1835" as="targetPoint" />
          </mxGeometry>
        </mxCell>
        <mxCell id="hAyUHEkFQbPn4te4HX6G-86" value="" style="rounded=0;orthogonalLoop=1;jettySize=auto;html=1;exitX=1;exitY=0.5;exitDx=0;exitDy=0;entryX=0;entryY=0.5;entryDx=0;entryDy=0;edgeStyle=orthogonalEdgeStyle;" parent="1" source="hAyUHEkFQbPn4te4HX6G-115" target="hAyUHEkFQbPn4te4HX6G-116" edge="1">
          <mxGeometry relative="1" as="geometry">
            <mxPoint x="2410" y="1890" as="sourcePoint" />
            <mxPoint x="2365" y="1930" as="targetPoint" />
            <Array as="points">
              <mxPoint x="2240" y="2403" />
              <mxPoint x="2240" y="2450" />
            </Array>
          </mxGeometry>
        </mxCell>
        <mxCell id="hAyUHEkFQbPn4te4HX6G-87" value="订单打点（新逻辑）" style="edgeLabel;html=1;align=center;verticalAlign=middle;resizable=0;points=[];" parent="hAyUHEkFQbPn4te4HX6G-86" vertex="1" connectable="0">
          <mxGeometry x="-0.7906" y="2" relative="1" as="geometry">
            <mxPoint as="offset" />
          </mxGeometry>
        </mxCell>
        <mxCell id="hAyUHEkFQbPn4te4HX6G-88" value="" style="rounded=0;orthogonalLoop=1;jettySize=auto;html=1;entryX=0.5;entryY=1;entryDx=0;entryDy=0;exitX=0.5;exitY=1;exitDx=0;exitDy=0;edgeStyle=orthogonalEdgeStyle;" parent="1" source="hAyUHEkFQbPn4te4HX6G-115" target="hAyUHEkFQbPn4te4HX6G-7" edge="1">
          <mxGeometry relative="1" as="geometry">
            <mxPoint x="1145" y="2280" as="sourcePoint" />
            <mxPoint x="2285" y="1840" as="targetPoint" />
            <Array as="points">
              <mxPoint x="794" y="2460" />
              <mxPoint x="1420" y="2460" />
              <mxPoint x="1420" y="2740" />
              <mxPoint x="3635" y="2740" />
            </Array>
          </mxGeometry>
        </mxCell>
        <mxCell id="hAyUHEkFQbPn4te4HX6G-89" value="订单打点（旧逻辑）" style="edgeLabel;html=1;align=center;verticalAlign=middle;resizable=0;points=[];" parent="hAyUHEkFQbPn4te4HX6G-88" vertex="1" connectable="0">
          <mxGeometry x="-0.8822" y="4" relative="1" as="geometry">
            <mxPoint as="offset" />
          </mxGeometry>
        </mxCell>
        <mxCell id="hAyUHEkFQbPn4te4HX6G-90" value="Kafka-GCP" style="fillColor=none;strokeColor=#5A6C86;verticalAlign=top;fontStyle=0;fontColor=#5A6C86;whiteSpace=wrap;html=1;" parent="1" vertex="1">
          <mxGeometry x="2540" y="1771" width="150" height="150" as="geometry" />
        </mxCell>
        <mxCell id="hAyUHEkFQbPn4te4HX6G-91" value="&lt;p style=&quot;margin: 0px; font-variant-numeric: normal; font-variant-east-asian: normal; font-variant-alternates: normal; font-size-adjust: none; font-kerning: auto; font-optical-sizing: auto; font-feature-settings: normal; font-variation-settings: normal; font-variant-position: normal; font-variant-emoji: normal; font-stretch: normal; line-height: normal; text-align: start;&quot; class=&quot;p1&quot;&gt;BI通用事件消息&lt;/p&gt;" style="rounded=0;whiteSpace=wrap;html=1;movable=1;resizable=1;rotatable=1;deletable=1;editable=1;locked=0;connectable=1;" parent="1" vertex="1">
          <mxGeometry x="2565" y="1812" width="100" height="30" as="geometry" />
        </mxCell>
        <mxCell id="hAyUHEkFQbPn4te4HX6G-92" value="&lt;p style=&quot;margin: 0px; font-variant-numeric: normal; font-variant-east-asian: normal; font-variant-alternates: normal; font-size-adjust: none; font-kerning: auto; font-optical-sizing: auto; font-feature-settings: normal; font-variation-settings: normal; font-variant-position: normal; font-variant-emoji: normal; font-stretch: normal; line-height: normal; text-align: start;&quot; class=&quot;p1&quot;&gt;BI通用收入聚合事件消息&lt;/p&gt;" style="rounded=0;whiteSpace=wrap;html=1;movable=1;resizable=1;rotatable=1;deletable=1;editable=1;locked=0;connectable=1;" parent="1" vertex="1">
          <mxGeometry x="2565" y="1862" width="100" height="30" as="geometry" />
        </mxCell>
        <mxCell id="hAyUHEkFQbPn4te4HX6G-93" value="" style="rounded=0;orthogonalLoop=1;jettySize=auto;html=1;exitX=1;exitY=0.5;exitDx=0;exitDy=0;entryX=0;entryY=0.5;entryDx=0;entryDy=0;" parent="1" source="hAyUHEkFQbPn4te4HX6G-31" target="hAyUHEkFQbPn4te4HX6G-70" edge="1">
          <mxGeometry relative="1" as="geometry">
            <mxPoint x="3135" y="1277" as="sourcePoint" />
            <mxPoint x="2858" y="1855" as="targetPoint" />
          </mxGeometry>
        </mxCell>
        <mxCell id="hAyUHEkFQbPn4te4HX6G-94" value="&lt;div&gt;服务端打点平台&lt;/div&gt;——分发worker" style="rounded=0;whiteSpace=wrap;html=1;fillColor=#60a917;strokeColor=#2D7600;fontColor=#ffffff;" parent="1" vertex="1">
          <mxGeometry x="2810" y="2300" width="120" height="60" as="geometry" />
        </mxCell>
        <mxCell id="hAyUHEkFQbPn4te4HX6G-95" value="BQ" style="rounded=0;whiteSpace=wrap;html=1;" parent="1" vertex="1">
          <mxGeometry x="2048" y="1615" width="120" height="60" as="geometry" />
        </mxCell>
        <mxCell id="hAyUHEkFQbPn4te4HX6G-96" value="" style="edgeStyle=orthogonalEdgeStyle;rounded=0;orthogonalLoop=1;jettySize=auto;html=1;exitX=1;exitY=0.5;exitDx=0;exitDy=0;entryX=0;entryY=0.5;entryDx=0;entryDy=0;" parent="1" source="hAyUHEkFQbPn4te4HX6G-9" target="hAyUHEkFQbPn4te4HX6G-2" edge="1">
          <mxGeometry relative="1" as="geometry">
            <mxPoint x="575" y="2360.16" as="sourcePoint" />
            <mxPoint x="2155" y="2735.16" as="targetPoint" />
          </mxGeometry>
        </mxCell>
        <mxCell id="hAyUHEkFQbPn4te4HX6G-97" value="" style="edgeStyle=orthogonalEdgeStyle;rounded=0;orthogonalLoop=1;jettySize=auto;html=1;entryX=0;entryY=0.5;entryDx=0;entryDy=0;" parent="1" source="hAyUHEkFQbPn4te4HX6G-99" target="hAyUHEkFQbPn4te4HX6G-62" edge="1">
          <mxGeometry relative="1" as="geometry">
            <mxPoint x="585" y="1902.1599999999999" as="targetPoint" />
          </mxGeometry>
        </mxCell>
        <mxCell id="hAyUHEkFQbPn4te4HX6G-98" value="回调" style="edgeLabel;html=1;align=center;verticalAlign=middle;resizable=0;points=[];" parent="hAyUHEkFQbPn4te4HX6G-97" vertex="1" connectable="0">
          <mxGeometry x="-0.2462" y="-4" relative="1" as="geometry">
            <mxPoint x="78" as="offset" />
          </mxGeometry>
        </mxCell>
        <mxCell id="hAyUHEkFQbPn4te4HX6G-99" value="Adjust" style="rounded=0;whiteSpace=wrap;html=1;fillColor=#0050ef;fontColor=#ffffff;strokeColor=#001DBC;" parent="1" vertex="1">
          <mxGeometry x="400" y="1991" width="120" height="30" as="geometry" />
        </mxCell>
        <mxCell id="hAyUHEkFQbPn4te4HX6G-100" value="Google Play" style="rounded=0;whiteSpace=wrap;html=1;fillColor=#0050ef;fontColor=#ffffff;strokeColor=#001DBC;" parent="1" vertex="1">
          <mxGeometry x="400" y="2134.16" width="120" height="60" as="geometry" />
        </mxCell>
        <mxCell id="hAyUHEkFQbPn4te4HX6G-101" value="" style="edgeStyle=orthogonalEdgeStyle;rounded=0;orthogonalLoop=1;jettySize=auto;html=1;entryX=0;entryY=0.5;entryDx=0;entryDy=0;exitX=1;exitY=0.5;exitDx=0;exitDy=0;" parent="1" source="hAyUHEkFQbPn4te4HX6G-100" target="hAyUHEkFQbPn4te4HX6G-68" edge="1">
          <mxGeometry relative="1" as="geometry">
            <mxPoint x="545" y="2165.16" as="sourcePoint" />
            <mxPoint x="777" y="2168.16" as="targetPoint" />
          </mxGeometry>
        </mxCell>
        <mxCell id="hAyUHEkFQbPn4te4HX6G-102" value="推送" style="edgeLabel;html=1;align=center;verticalAlign=middle;resizable=0;points=[];" parent="hAyUHEkFQbPn4te4HX6G-101" vertex="1" connectable="0">
          <mxGeometry x="-0.2462" y="-4" relative="1" as="geometry">
            <mxPoint x="78" as="offset" />
          </mxGeometry>
        </mxCell>
        <mxCell id="hAyUHEkFQbPn4te4HX6G-110" value="appsflyer平台" style="rounded=0;whiteSpace=wrap;html=1;fillColor=#0050ef;fontColor=#ffffff;strokeColor=#001DBC;" parent="1" vertex="1">
          <mxGeometry x="3575" y="2261" width="120" height="60" as="geometry" />
        </mxCell>
        <mxCell id="hAyUHEkFQbPn4te4HX6G-111" value="" style="rounded=0;orthogonalLoop=1;jettySize=auto;html=1;entryX=0;entryY=0.5;entryDx=0;entryDy=0;exitX=1;exitY=0.5;exitDx=0;exitDy=0;" parent="1" source="hAyUHEkFQbPn4te4HX6G-62" target="hAyUHEkFQbPn4te4HX6G-112" edge="1">
          <mxGeometry relative="1" as="geometry">
            <mxPoint x="897" y="1899.1599999999999" as="sourcePoint" />
            <mxPoint x="1548" y="1731.1599999999999" as="targetPoint" />
          </mxGeometry>
        </mxCell>
        <mxCell id="hAyUHEkFQbPn4te4HX6G-112" value="日志" style="rounded=0;whiteSpace=wrap;html=1;movable=1;resizable=1;rotatable=1;deletable=1;editable=1;locked=0;connectable=1;" parent="1" vertex="1">
          <mxGeometry x="982" y="1991.1599999999999" width="100" height="30" as="geometry" />
        </mxCell>
        <mxCell id="hAyUHEkFQbPn4te4HX6G-113" value="" style="rounded=0;orthogonalLoop=1;jettySize=auto;html=1;entryX=0;entryY=0.5;entryDx=0;entryDy=0;exitX=1;exitY=0.5;exitDx=0;exitDy=0;" parent="1" source="hAyUHEkFQbPn4te4HX6G-63" target="hAyUHEkFQbPn4te4HX6G-114" edge="1">
          <mxGeometry relative="1" as="geometry">
            <mxPoint x="897" y="1823" as="sourcePoint" />
            <mxPoint x="1548" y="1556" as="targetPoint" />
          </mxGeometry>
        </mxCell>
        <mxCell id="hAyUHEkFQbPn4te4HX6G-114" value="日志" style="rounded=0;whiteSpace=wrap;html=1;movable=1;resizable=1;rotatable=1;deletable=1;editable=1;locked=0;connectable=1;" parent="1" vertex="1">
          <mxGeometry x="982" y="1913" width="100" height="30" as="geometry" />
        </mxCell>
        <mxCell id="hAyUHEkFQbPn4te4HX6G-115" value="中台订单服务" style="rounded=0;whiteSpace=wrap;html=1;fillColor=#60a917;strokeColor=#2D7600;fontColor=#ffffff;" parent="1" vertex="1">
          <mxGeometry x="733.5" y="2372.66" width="120" height="60" as="geometry" />
        </mxCell>
        <mxCell id="hAyUHEkFQbPn4te4HX6G-116" value="Kafka-GCP" style="fillColor=none;strokeColor=#5A6C86;verticalAlign=top;fontStyle=0;fontColor=#5A6C86;whiteSpace=wrap;html=1;" parent="1" vertex="1">
          <mxGeometry x="2565" y="2340" width="175" height="220" as="geometry" />
        </mxCell>
        <mxCell id="hAyUHEkFQbPn4te4HX6G-117" value="&lt;p style=&quot;margin: 0px; font-variant-numeric: normal; font-variant-east-asian: normal; font-variant-alternates: normal; font-size-adjust: none; font-kerning: auto; font-optical-sizing: auto; font-feature-settings: normal; font-variation-settings: normal; font-variant-position: normal; font-variant-emoji: normal; font-stretch: normal; line-height: normal; text-align: start;&quot; class=&quot;p1&quot;&gt;订单类消息--adjust&lt;/p&gt;" style="rounded=0;whiteSpace=wrap;html=1;movable=1;resizable=1;rotatable=1;deletable=1;editable=1;locked=0;connectable=1;" parent="1" vertex="1">
          <mxGeometry x="2590" y="2379" width="130" height="30" as="geometry" />
        </mxCell>
        <mxCell id="hAyUHEkFQbPn4te4HX6G-118" style="edgeStyle=orthogonalEdgeStyle;rounded=0;orthogonalLoop=1;jettySize=auto;html=1;exitX=0.5;exitY=1;exitDx=0;exitDy=0;" parent="1" source="hAyUHEkFQbPn4te4HX6G-117" target="hAyUHEkFQbPn4te4HX6G-117" edge="1">
          <mxGeometry relative="1" as="geometry" />
        </mxCell>
        <mxCell id="hAyUHEkFQbPn4te4HX6G-119" style="edgeStyle=orthogonalEdgeStyle;rounded=0;orthogonalLoop=1;jettySize=auto;html=1;exitX=0.5;exitY=1;exitDx=0;exitDy=0;" parent="1" source="hAyUHEkFQbPn4te4HX6G-117" target="hAyUHEkFQbPn4te4HX6G-117" edge="1">
          <mxGeometry relative="1" as="geometry" />
        </mxCell>
        <mxCell id="hAyUHEkFQbPn4te4HX6G-120" value="&lt;p style=&quot;margin: 0px; font-variant-numeric: normal; font-variant-east-asian: normal; font-variant-alternates: normal; font-size-adjust: none; font-kerning: auto; font-optical-sizing: auto; font-feature-settings: normal; font-variation-settings: normal; font-variant-position: normal; font-variant-emoji: normal; font-stretch: normal; line-height: normal; text-align: start;&quot; class=&quot;p1&quot;&gt;订单类消息--firebase&lt;/p&gt;" style="rounded=0;whiteSpace=wrap;html=1;movable=1;resizable=1;rotatable=1;deletable=1;editable=1;locked=0;connectable=1;" parent="1" vertex="1">
          <mxGeometry x="2590" y="2428" width="130" height="30" as="geometry" />
        </mxCell>
        <mxCell id="hAyUHEkFQbPn4te4HX6G-121" value="" style="rounded=0;orthogonalLoop=1;jettySize=auto;html=1;" parent="1" source="hAyUHEkFQbPn4te4HX6G-122" target="hAyUHEkFQbPn4te4HX6G-141" edge="1">
          <mxGeometry relative="1" as="geometry" />
        </mxCell>
        <mxCell id="hAyUHEkFQbPn4te4HX6G-122" value="&lt;p style=&quot;margin: 0px; font-variant-numeric: normal; font-variant-east-asian: normal; font-variant-alternates: normal; font-size-adjust: none; font-kerning: auto; font-optical-sizing: auto; font-feature-settings: normal; font-variation-settings: normal; font-variant-position: normal; font-variant-emoji: normal; font-stretch: normal; line-height: normal; text-align: start;&quot; class=&quot;p1&quot;&gt;订单类消息--castbox&lt;/p&gt;" style="rounded=0;whiteSpace=wrap;html=1;movable=1;resizable=1;rotatable=1;deletable=1;editable=1;locked=0;connectable=1;" parent="1" vertex="1">
          <mxGeometry x="2590" y="2469.5" width="130" height="30" as="geometry" />
        </mxCell>
        <mxCell id="hAyUHEkFQbPn4te4HX6G-123" value="" style="rounded=0;orthogonalLoop=1;jettySize=auto;html=1;entryX=0;entryY=0.5;entryDx=0;entryDy=0;exitX=1;exitY=0.5;exitDx=0;exitDy=0;" parent="1" source="hAyUHEkFQbPn4te4HX6G-124" target="hAyUHEkFQbPn4te4HX6G-143" edge="1">
          <mxGeometry relative="1" as="geometry" />
        </mxCell>
        <mxCell id="hAyUHEkFQbPn4te4HX6G-124" value="&lt;p style=&quot;margin: 0px; font-variant-numeric: normal; font-variant-east-asian: normal; font-variant-alternates: normal; font-size-adjust: none; font-kerning: auto; font-optical-sizing: auto; font-feature-settings: normal; font-variation-settings: normal; font-variant-position: normal; font-variant-emoji: normal; font-stretch: normal; line-height: normal; text-align: start;&quot; class=&quot;p1&quot;&gt;订单类消息--appsflyer&lt;/p&gt;" style="rounded=0;whiteSpace=wrap;html=1;movable=1;resizable=1;rotatable=1;deletable=1;editable=1;locked=0;connectable=1;" parent="1" vertex="1">
          <mxGeometry x="2590" y="2513" width="130" height="30" as="geometry" />
        </mxCell>
        <mxCell id="hAyUHEkFQbPn4te4HX6G-125" value="&lt;div&gt;服务端打点平台&lt;/div&gt;——执行worker" style="rounded=0;whiteSpace=wrap;html=1;fillColor=#60a917;strokeColor=#2D7600;fontColor=#ffffff;" parent="1" vertex="1">
          <mxGeometry x="3159" y="1960.5" width="120" height="44.5" as="geometry" />
        </mxCell>
        <mxCell id="hAyUHEkFQbPn4te4HX6G-126" value="" style="rounded=0;orthogonalLoop=1;jettySize=auto;html=1;entryX=0;entryY=0.5;entryDx=0;entryDy=0;exitX=1;exitY=0.5;exitDx=0;exitDy=0;" parent="1" source="hAyUHEkFQbPn4te4HX6G-125" target="hAyUHEkFQbPn4te4HX6G-110" edge="1">
          <mxGeometry relative="1" as="geometry">
            <mxPoint x="3240" y="2161" as="sourcePoint" />
            <mxPoint x="3364" y="2160" as="targetPoint" />
          </mxGeometry>
        </mxCell>
        <mxCell id="hAyUHEkFQbPn4te4HX6G-127" value="appsfilyer" style="rounded=0;whiteSpace=wrap;html=1;movable=1;resizable=1;rotatable=1;deletable=1;editable=1;locked=0;connectable=1;" parent="1" vertex="1">
          <mxGeometry x="2968" y="1919" width="100" height="30" as="geometry" />
        </mxCell>
        <mxCell id="hAyUHEkFQbPn4te4HX6G-128" value="" style="rounded=0;orthogonalLoop=1;jettySize=auto;html=1;entryX=0;entryY=0.5;entryDx=0;entryDy=0;exitX=1;exitY=0.5;exitDx=0;exitDy=0;" parent="1" source="hAyUHEkFQbPn4te4HX6G-127" target="hAyUHEkFQbPn4te4HX6G-125" edge="1">
          <mxGeometry relative="1" as="geometry">
            <mxPoint x="3030" y="2035" as="sourcePoint" />
            <mxPoint x="3121" y="2095" as="targetPoint" />
          </mxGeometry>
        </mxCell>
        <mxCell id="hAyUHEkFQbPn4te4HX6G-129" value="Kafka-GCP" style="fillColor=none;strokeColor=#5A6C86;verticalAlign=top;fontStyle=0;fontColor=#5A6C86;whiteSpace=wrap;html=1;" parent="1" vertex="1">
          <mxGeometry x="3005" y="2333" width="150" height="220" as="geometry" />
        </mxCell>
        <mxCell id="hAyUHEkFQbPn4te4HX6G-130" value="" style="rounded=0;orthogonalLoop=1;jettySize=auto;html=1;entryX=0;entryY=0.5;entryDx=0;entryDy=0;exitX=1;exitY=0.5;exitDx=0;exitDy=0;" parent="1" source="hAyUHEkFQbPn4te4HX6G-131" target="hAyUHEkFQbPn4te4HX6G-145" edge="1">
          <mxGeometry relative="1" as="geometry" />
        </mxCell>
        <mxCell id="hAyUHEkFQbPn4te4HX6G-131" value="adjust" style="rounded=0;whiteSpace=wrap;html=1;movable=1;resizable=1;rotatable=1;deletable=1;editable=1;locked=0;connectable=1;" parent="1" vertex="1">
          <mxGeometry x="3030" y="2377.5" width="100" height="30" as="geometry" />
        </mxCell>
        <mxCell id="hAyUHEkFQbPn4te4HX6G-132" value="" style="rounded=0;orthogonalLoop=1;jettySize=auto;html=1;entryX=0;entryY=0.5;entryDx=0;entryDy=0;exitX=1;exitY=0.5;exitDx=0;exitDy=0;" parent="1" source="hAyUHEkFQbPn4te4HX6G-133" target="hAyUHEkFQbPn4te4HX6G-146" edge="1">
          <mxGeometry relative="1" as="geometry" />
        </mxCell>
        <mxCell id="hAyUHEkFQbPn4te4HX6G-133" value="firebase" style="rounded=0;whiteSpace=wrap;html=1;movable=1;resizable=1;rotatable=1;deletable=1;editable=1;locked=0;connectable=1;" parent="1" vertex="1">
          <mxGeometry x="3030" y="2418" width="100" height="30" as="geometry" />
        </mxCell>
        <mxCell id="hAyUHEkFQbPn4te4HX6G-134" value="" style="rounded=0;orthogonalLoop=1;jettySize=auto;html=1;entryX=0;entryY=0.5;entryDx=0;entryDy=0;exitX=1;exitY=0.5;exitDx=0;exitDy=0;" parent="1" source="hAyUHEkFQbPn4te4HX6G-135" target="hAyUHEkFQbPn4te4HX6G-147" edge="1">
          <mxGeometry relative="1" as="geometry" />
        </mxCell>
        <mxCell id="hAyUHEkFQbPn4te4HX6G-135" value="castbox" style="rounded=0;whiteSpace=wrap;html=1;movable=1;resizable=1;rotatable=1;deletable=1;editable=1;locked=0;connectable=1;" parent="1" vertex="1">
          <mxGeometry x="3030" y="2458" width="100" height="30" as="geometry" />
        </mxCell>
        <mxCell id="hAyUHEkFQbPn4te4HX6G-136" value="" style="rounded=0;orthogonalLoop=1;jettySize=auto;html=1;exitX=1;exitY=0.5;exitDx=0;exitDy=0;entryX=0;entryY=0.5;entryDx=0;entryDy=0;" parent="1" source="hAyUHEkFQbPn4te4HX6G-137" target="hAyUHEkFQbPn4te4HX6G-148" edge="1">
          <mxGeometry relative="1" as="geometry" />
        </mxCell>
        <mxCell id="hAyUHEkFQbPn4te4HX6G-137" value="appsfilyer" style="rounded=0;whiteSpace=wrap;html=1;movable=1;resizable=1;rotatable=1;deletable=1;editable=1;locked=0;connectable=1;" parent="1" vertex="1">
          <mxGeometry x="3030" y="2502" width="100" height="30" as="geometry" />
        </mxCell>
        <mxCell id="hAyUHEkFQbPn4te4HX6G-138" value="" style="rounded=0;orthogonalLoop=1;jettySize=auto;html=1;exitX=1;exitY=0.5;exitDx=0;exitDy=0;entryX=0;entryY=0.5;entryDx=0;entryDy=0;" parent="1" source="hAyUHEkFQbPn4te4HX6G-139" target="hAyUHEkFQbPn4te4HX6G-133" edge="1">
          <mxGeometry relative="1" as="geometry" />
        </mxCell>
        <mxCell id="hAyUHEkFQbPn4te4HX6G-139" value="&lt;div&gt;服务端打点平台&lt;/div&gt;——分发worker" style="rounded=0;whiteSpace=wrap;html=1;fillColor=#60a917;strokeColor=#2D7600;fontColor=#ffffff;" parent="1" vertex="1">
          <mxGeometry x="2810" y="2377.5" width="120" height="60" as="geometry" />
        </mxCell>
        <mxCell id="hAyUHEkFQbPn4te4HX6G-140" value="" style="rounded=0;orthogonalLoop=1;jettySize=auto;html=1;entryX=0;entryY=0.5;entryDx=0;entryDy=0;exitX=1;exitY=0.5;exitDx=0;exitDy=0;" parent="1" source="hAyUHEkFQbPn4te4HX6G-141" target="hAyUHEkFQbPn4te4HX6G-135" edge="1">
          <mxGeometry relative="1" as="geometry" />
        </mxCell>
        <mxCell id="hAyUHEkFQbPn4te4HX6G-141" value="&lt;div&gt;服务端打点平台&lt;/div&gt;——分发worker" style="rounded=0;whiteSpace=wrap;html=1;fillColor=#60a917;strokeColor=#2D7600;fontColor=#ffffff;" parent="1" vertex="1">
          <mxGeometry x="2810" y="2454.5" width="120" height="60" as="geometry" />
        </mxCell>
        <mxCell id="hAyUHEkFQbPn4te4HX6G-142" value="" style="rounded=0;orthogonalLoop=1;jettySize=auto;html=1;entryX=0;entryY=0.5;entryDx=0;entryDy=0;exitX=1;exitY=0.5;exitDx=0;exitDy=0;" parent="1" source="hAyUHEkFQbPn4te4HX6G-143" target="hAyUHEkFQbPn4te4HX6G-137" edge="1">
          <mxGeometry relative="1" as="geometry" />
        </mxCell>
        <mxCell id="hAyUHEkFQbPn4te4HX6G-143" value="&lt;div&gt;服务端打点平台&lt;/div&gt;——分发worker&lt;div&gt;1、去重逻辑&lt;/div&gt;&lt;div&gt;2、通知发送&lt;/div&gt;" style="rounded=0;whiteSpace=wrap;html=1;fillColor=#60a917;strokeColor=#2D7600;fontColor=#ffffff;" parent="1" vertex="1">
          <mxGeometry x="2810" y="2532" width="120" height="60" as="geometry" />
        </mxCell>
        <mxCell id="hAyUHEkFQbPn4te4HX6G-144" value="" style="rounded=0;orthogonalLoop=1;jettySize=auto;html=1;exitX=1;exitY=0.5;exitDx=0;exitDy=0;entryX=0;entryY=0.5;entryDx=0;entryDy=0;" parent="1" source="hAyUHEkFQbPn4te4HX6G-120" target="hAyUHEkFQbPn4te4HX6G-139" edge="1">
          <mxGeometry relative="1" as="geometry">
            <mxPoint x="2810" y="2384" as="targetPoint" />
            <mxPoint x="2720" y="2448" as="sourcePoint" />
          </mxGeometry>
        </mxCell>
        <mxCell id="hAyUHEkFQbPn4te4HX6G-145" value="&lt;div&gt;服务端打点平台&lt;/div&gt;——执行worker" style="rounded=0;whiteSpace=wrap;html=1;fillColor=#60a917;strokeColor=#2D7600;fontColor=#ffffff;" parent="1" vertex="1">
          <mxGeometry x="3190" y="2307" width="120" height="46" as="geometry" />
        </mxCell>
        <mxCell id="hAyUHEkFQbPn4te4HX6G-146" value="&lt;div&gt;服务端打点平台&lt;/div&gt;——执行worker" style="rounded=0;whiteSpace=wrap;html=1;fillColor=#60a917;strokeColor=#2D7600;fontColor=#ffffff;" parent="1" vertex="1">
          <mxGeometry x="3190" y="2385.5" width="120" height="44" as="geometry" />
        </mxCell>
        <mxCell id="hAyUHEkFQbPn4te4HX6G-147" value="&lt;div&gt;服务端打点平台&lt;/div&gt;——执行worker" style="rounded=0;whiteSpace=wrap;html=1;fillColor=#60a917;strokeColor=#2D7600;fontColor=#ffffff;" parent="1" vertex="1">
          <mxGeometry x="3190" y="2462.25" width="120" height="44.5" as="geometry" />
        </mxCell>
        <mxCell id="hAyUHEkFQbPn4te4HX6G-148" value="&lt;div&gt;服务端打点平台&lt;/div&gt;——执行worker" style="rounded=0;whiteSpace=wrap;html=1;fillColor=#60a917;strokeColor=#2D7600;fontColor=#ffffff;" parent="1" vertex="1">
          <mxGeometry x="3190" y="2539.75" width="120" height="44.5" as="geometry" />
        </mxCell>
        <mxCell id="hAyUHEkFQbPn4te4HX6G-149" value="" style="rounded=0;orthogonalLoop=1;jettySize=auto;html=1;entryX=0;entryY=0.5;entryDx=0;entryDy=0;exitX=1;exitY=0.5;exitDx=0;exitDy=0;" parent="1" source="hAyUHEkFQbPn4te4HX6G-145" target="hAyUHEkFQbPn4te4HX6G-77" edge="1">
          <mxGeometry relative="1" as="geometry">
            <mxPoint x="3220" y="2146.5" as="sourcePoint" />
            <mxPoint x="3516" y="2454.5" as="targetPoint" />
          </mxGeometry>
        </mxCell>
        <mxCell id="hAyUHEkFQbPn4te4HX6G-150" value="" style="rounded=0;orthogonalLoop=1;jettySize=auto;html=1;entryX=0;entryY=0.5;entryDx=0;entryDy=0;exitX=1;exitY=0.5;exitDx=0;exitDy=0;" parent="1" source="hAyUHEkFQbPn4te4HX6G-146" target="hAyUHEkFQbPn4te4HX6G-82" edge="1">
          <mxGeometry relative="1" as="geometry">
            <mxPoint x="3320" y="2377" as="sourcePoint" />
            <mxPoint x="3585" y="2035" as="targetPoint" />
          </mxGeometry>
        </mxCell>
        <mxCell id="hAyUHEkFQbPn4te4HX6G-151" value="" style="rounded=0;orthogonalLoop=1;jettySize=auto;html=1;entryX=0;entryY=0.5;entryDx=0;entryDy=0;exitX=1;exitY=0.5;exitDx=0;exitDy=0;" parent="1" source="hAyUHEkFQbPn4te4HX6G-147" target="hAyUHEkFQbPn4te4HX6G-83" edge="1">
          <mxGeometry relative="1" as="geometry">
            <mxPoint x="3320" y="2418" as="sourcePoint" />
            <mxPoint x="3585" y="2076" as="targetPoint" />
          </mxGeometry>
        </mxCell>
        <mxCell id="hAyUHEkFQbPn4te4HX6G-152" value="" style="rounded=0;orthogonalLoop=1;jettySize=auto;html=1;entryX=0;entryY=0.5;entryDx=0;entryDy=0;exitX=1;exitY=0.5;exitDx=0;exitDy=0;" parent="1" source="hAyUHEkFQbPn4te4HX6G-148" target="hAyUHEkFQbPn4te4HX6G-110" edge="1">
          <mxGeometry relative="1" as="geometry">
            <mxPoint x="3320" y="2448" as="sourcePoint" />
            <mxPoint x="3585" y="2106" as="targetPoint" />
          </mxGeometry>
        </mxCell>
        <mxCell id="hAyUHEkFQbPn4te4HX6G-153" value="" style="rounded=0;orthogonalLoop=1;jettySize=auto;html=1;exitX=1;exitY=0.5;exitDx=0;exitDy=0;entryX=0;entryY=0.5;entryDx=0;entryDy=0;edgeStyle=orthogonalEdgeStyle;" parent="1" source="hAyUHEkFQbPn4te4HX6G-100" target="hAyUHEkFQbPn4te4HX6G-50" edge="1">
          <mxGeometry x="0.0018" relative="1" as="geometry">
            <mxPoint x="969" y="1975" as="sourcePoint" />
            <mxPoint x="1460" y="1840" as="targetPoint" />
            <Array as="points">
              <mxPoint x="590" y="2164" />
              <mxPoint x="590" y="1838" />
            </Array>
            <mxPoint as="offset" />
          </mxGeometry>
        </mxCell>
        <mxCell id="hAyUHEkFQbPn4te4HX6G-154" value="ga" style="rounded=0;whiteSpace=wrap;html=1;fillColor=#0050ef;fontColor=#ffffff;strokeColor=#001DBC;" parent="1" vertex="1">
          <mxGeometry x="392" y="1553" width="120" height="30" as="geometry" />
        </mxCell>
        <mxCell id="hAyUHEkFQbPn4te4HX6G-155" value="appsflyer" style="rounded=0;whiteSpace=wrap;html=1;fillColor=#0050ef;fontColor=#ffffff;strokeColor=#001DBC;" parent="1" vertex="1">
          <mxGeometry x="392" y="1598" width="120" height="30" as="geometry" />
        </mxCell>
        <mxCell id="hAyUHEkFQbPn4te4HX6G-156" value="" style="rounded=0;orthogonalLoop=1;jettySize=auto;html=1;exitX=1;exitY=0.5;exitDx=0;exitDy=0;entryX=0;entryY=0.5;entryDx=0;entryDy=0;" parent="1" source="hAyUHEkFQbPn4te4HX6G-172" target="hAyUHEkFQbPn4te4HX6G-48" edge="1">
          <mxGeometry relative="1" as="geometry">
            <mxPoint x="920" y="1480" as="sourcePoint" />
            <mxPoint x="1568" y="1464" as="targetPoint" />
          </mxGeometry>
        </mxCell>
        <mxCell id="hAyUHEkFQbPn4te4HX6G-157" value="geo" style="rounded=0;whiteSpace=wrap;html=1;fillColor=#0050ef;fontColor=#ffffff;strokeColor=#001DBC;" parent="1" vertex="1">
          <mxGeometry x="393" y="1643" width="118" height="29" as="geometry" />
        </mxCell>
        <mxCell id="hAyUHEkFQbPn4te4HX6G-158" value="" style="rounded=0;orthogonalLoop=1;jettySize=auto;html=1;entryX=0;entryY=0.5;entryDx=0;entryDy=0;exitX=1;exitY=0.5;exitDx=0;exitDy=0;" parent="1" source="hAyUHEkFQbPn4te4HX6G-157" target="hAyUHEkFQbPn4te4HX6G-51" edge="1">
          <mxGeometry x="0.0018" relative="1" as="geometry">
            <mxPoint x="1112" y="1775" as="sourcePoint" />
            <mxPoint x="1568" y="1543" as="targetPoint" />
            <mxPoint as="offset" />
          </mxGeometry>
        </mxCell>
        <mxCell id="hAyUHEkFQbPn4te4HX6G-159" value="" style="rounded=0;orthogonalLoop=1;jettySize=auto;html=1;exitX=1;exitY=0.5;exitDx=0;exitDy=0;entryX=0;entryY=0.5;entryDx=0;entryDy=0;" parent="1" source="hAyUHEkFQbPn4te4HX6G-115" target="hAyUHEkFQbPn4te4HX6G-61" edge="1">
          <mxGeometry relative="1" as="geometry">
            <mxPoint x="863" y="2073" as="sourcePoint" />
            <mxPoint x="980" y="2030" as="targetPoint" />
          </mxGeometry>
        </mxCell>
        <mxCell id="hAyUHEkFQbPn4te4HX6G-160" value="每日订单导出任务" style="rounded=0;whiteSpace=wrap;html=1;fillColor=#60a917;fontColor=#ffffff;strokeColor=#2D7600;" parent="1" vertex="1">
          <mxGeometry x="1395" y="2186" width="120" height="30" as="geometry" />
        </mxCell>
        <mxCell id="hAyUHEkFQbPn4te4HX6G-161" value="每日退单导出任务" style="rounded=0;whiteSpace=wrap;html=1;fillColor=#60a917;fontColor=#ffffff;strokeColor=#2D7600;" parent="1" vertex="1">
          <mxGeometry x="1395" y="2231" width="120" height="30" as="geometry" />
        </mxCell>
        <mxCell id="hAyUHEkFQbPn4te4HX6G-162" value="" style="rounded=0;orthogonalLoop=1;jettySize=auto;html=1;entryX=0;entryY=0.5;entryDx=0;entryDy=0;exitX=1;exitY=0.5;exitDx=0;exitDy=0;" parent="1" source="hAyUHEkFQbPn4te4HX6G-61" target="hAyUHEkFQbPn4te4HX6G-161" edge="1">
          <mxGeometry relative="1" as="geometry">
            <mxPoint x="1080" y="2030" as="sourcePoint" />
            <mxPoint x="1568" y="1670" as="targetPoint" />
          </mxGeometry>
        </mxCell>
        <mxCell id="hAyUHEkFQbPn4te4HX6G-163" value="auth服务" style="rounded=0;whiteSpace=wrap;html=1;fillColor=#60a917;strokeColor=#2D7600;fontColor=#ffffff;" parent="1" vertex="1">
          <mxGeometry x="733.5" y="2214" width="120" height="60" as="geometry" />
        </mxCell>
        <mxCell id="hAyUHEkFQbPn4te4HX6G-164" value="设备服务" style="rounded=0;whiteSpace=wrap;html=1;fillColor=#60a917;strokeColor=#2D7600;fontColor=#ffffff;" parent="1" vertex="1">
          <mxGeometry x="733.5" y="2293" width="120" height="60" as="geometry" />
        </mxCell>
        <mxCell id="hAyUHEkFQbPn4te4HX6G-165" value="" style="rounded=0;orthogonalLoop=1;jettySize=auto;html=1;exitX=1;exitY=0.5;exitDx=0;exitDy=0;entryX=0;entryY=0.5;entryDx=0;entryDy=0;" parent="1" source="hAyUHEkFQbPn4te4HX6G-164" target="hAyUHEkFQbPn4te4HX6G-61" edge="1">
          <mxGeometry relative="1" as="geometry">
            <mxPoint x="864" y="2413" as="sourcePoint" />
            <mxPoint x="992" y="2038" as="targetPoint" />
          </mxGeometry>
        </mxCell>
        <mxCell id="hAyUHEkFQbPn4te4HX6G-166" value="" style="rounded=0;orthogonalLoop=1;jettySize=auto;html=1;exitX=1;exitY=0.5;exitDx=0;exitDy=0;entryX=0;entryY=0.5;entryDx=0;entryDy=0;" parent="1" source="hAyUHEkFQbPn4te4HX6G-163" target="hAyUHEkFQbPn4te4HX6G-61" edge="1">
          <mxGeometry relative="1" as="geometry">
            <mxPoint x="874" y="2423" as="sourcePoint" />
            <mxPoint x="1002" y="2048" as="targetPoint" />
          </mxGeometry>
        </mxCell>
        <mxCell id="hAyUHEkFQbPn4te4HX6G-167" value="App Store" style="rounded=0;whiteSpace=wrap;html=1;fillColor=#0050ef;fontColor=#ffffff;strokeColor=#001DBC;" parent="1" vertex="1">
          <mxGeometry x="400" y="2055" width="120" height="60" as="geometry" />
        </mxCell>
        <mxCell id="hAyUHEkFQbPn4te4HX6G-168" value="" style="rounded=0;orthogonalLoop=1;jettySize=auto;html=1;exitX=1;exitY=0.5;exitDx=0;exitDy=0;entryX=0;entryY=0.5;entryDx=0;entryDy=0;" parent="1" source="hAyUHEkFQbPn4te4HX6G-167" target="hAyUHEkFQbPn4te4HX6G-170" edge="1">
          <mxGeometry relative="1" as="geometry">
            <mxPoint x="530" y="2178" as="sourcePoint" />
            <mxPoint x="743" y="2179" as="targetPoint" />
          </mxGeometry>
        </mxCell>
        <mxCell id="hAyUHEkFQbPn4te4HX6G-169" value="推送+每日拉取" style="edgeLabel;html=1;align=center;verticalAlign=middle;resizable=0;points=[];" parent="hAyUHEkFQbPn4te4HX6G-168" vertex="1" connectable="0">
          <mxGeometry x="-0.2462" y="-4" relative="1" as="geometry">
            <mxPoint x="69" as="offset" />
          </mxGeometry>
        </mxCell>
        <mxCell id="hAyUHEkFQbPn4te4HX6G-170" value="app store&lt;div&gt;订单数据接收&lt;/div&gt;" style="rounded=0;whiteSpace=wrap;html=1;fillColor=#60a917;strokeColor=#2D7600;fontColor=#ffffff;" parent="1" vertex="1">
          <mxGeometry x="733.5" y="2055" width="120" height="60" as="geometry" />
        </mxCell>
        <mxCell id="hAyUHEkFQbPn4te4HX6G-171" value="" style="rounded=0;orthogonalLoop=1;jettySize=auto;html=1;entryX=0;entryY=0.5;entryDx=0;entryDy=0;exitX=1;exitY=0.25;exitDx=0;exitDy=0;" parent="1" source="hAyUHEkFQbPn4te4HX6G-170" target="hAyUHEkFQbPn4te4HX6G-61" edge="1">
          <mxGeometry relative="1" as="geometry">
            <mxPoint x="863" y="2165" as="sourcePoint" />
            <mxPoint x="992" y="2130" as="targetPoint" />
          </mxGeometry>
        </mxCell>
        <mxCell id="hAyUHEkFQbPn4te4HX6G-172" value="iaa" style="rounded=0;whiteSpace=wrap;html=1;fillColor=#0050ef;fontColor=#ffffff;strokeColor=#001DBC;" parent="1" vertex="1">
          <mxGeometry x="393" y="1509" width="118" height="29" as="geometry" />
        </mxCell>
        <mxCell id="hAyUHEkFQbPn4te4HX6G-173" value="每日安装收入明细数据拉取任务" style="rounded=0;whiteSpace=wrap;html=1;fillColor=#60a917;fontColor=#ffffff;strokeColor=#2D7600;" parent="1" vertex="1">
          <mxGeometry x="1395" y="1598" width="120" height="30" as="geometry" />
        </mxCell>
        <mxCell id="hAyUHEkFQbPn4te4HX6G-174" value="每日新增用户导出任务" style="rounded=0;whiteSpace=wrap;html=1;fillColor=#60a917;fontColor=#ffffff;strokeColor=#2D7600;" parent="1" vertex="1">
          <mxGeometry x="1395" y="2094.5" width="120" height="30" as="geometry" />
        </mxCell>
        <mxCell id="hAyUHEkFQbPn4te4HX6G-175" value="每日设备数据导出任务" style="rounded=0;whiteSpace=wrap;html=1;fillColor=#60a917;fontColor=#ffffff;strokeColor=#2D7600;" parent="1" vertex="1">
          <mxGeometry x="1395" y="2140" width="120" height="30" as="geometry" />
        </mxCell>
        <mxCell id="hAyUHEkFQbPn4te4HX6G-176" value="" style="rounded=0;orthogonalLoop=1;jettySize=auto;html=1;exitX=1;exitY=0.5;exitDx=0;exitDy=0;entryX=0;entryY=0.5;entryDx=0;entryDy=0;" parent="1" source="hAyUHEkFQbPn4te4HX6G-61" target="hAyUHEkFQbPn4te4HX6G-174" edge="1">
          <mxGeometry relative="1" as="geometry">
            <mxPoint x="1092" y="2038" as="sourcePoint" />
            <mxPoint x="1568" y="1867" as="targetPoint" />
          </mxGeometry>
        </mxCell>
        <mxCell id="hAyUHEkFQbPn4te4HX6G-177" value="" style="rounded=0;orthogonalLoop=1;jettySize=auto;html=1;exitX=1;exitY=0.5;exitDx=0;exitDy=0;entryX=0;entryY=0.5;entryDx=0;entryDy=0;" parent="1" source="hAyUHEkFQbPn4te4HX6G-61" target="hAyUHEkFQbPn4te4HX6G-175" edge="1">
          <mxGeometry relative="1" as="geometry">
            <mxPoint x="1102" y="2048" as="sourcePoint" />
            <mxPoint x="1578" y="1877" as="targetPoint" />
          </mxGeometry>
        </mxCell>
        <mxCell id="hAyUHEkFQbPn4te4HX6G-178" value="每日订单明细数据拉取任务" style="rounded=0;whiteSpace=wrap;html=1;fillColor=#60a917;fontColor=#ffffff;strokeColor=#2D7600;" parent="1" vertex="1">
          <mxGeometry x="1395" y="1779" width="120" height="30" as="geometry" />
        </mxCell>
        <mxCell id="hAyUHEkFQbPn4te4HX6G-179" value="" style="rounded=0;orthogonalLoop=1;jettySize=auto;html=1;entryX=0;entryY=0.5;entryDx=0;entryDy=0;exitX=1;exitY=0.5;exitDx=0;exitDy=0;edgeStyle=orthogonalEdgeStyle;" parent="1" source="hAyUHEkFQbPn4te4HX6G-100" target="hAyUHEkFQbPn4te4HX6G-178" edge="1">
          <mxGeometry x="0.0018" relative="1" as="geometry">
            <mxPoint x="530" y="2072" as="sourcePoint" />
            <mxPoint x="1568" y="1714" as="targetPoint" />
            <mxPoint as="offset" />
            <Array as="points">
              <mxPoint x="590" y="2164" />
              <mxPoint x="590" y="1794" />
            </Array>
          </mxGeometry>
        </mxCell>
        <mxCell id="hAyUHEkFQbPn4te4HX6G-180" value="每日订单报告数据拉取任务" style="rounded=0;whiteSpace=wrap;html=1;fillColor=#60a917;fontColor=#ffffff;strokeColor=#2D7600;" parent="1" vertex="1">
          <mxGeometry x="1395" y="1735" width="120" height="30" as="geometry" />
        </mxCell>
        <mxCell id="hAyUHEkFQbPn4te4HX6G-181" value="" style="rounded=0;orthogonalLoop=1;jettySize=auto;html=1;entryX=0;entryY=0.5;entryDx=0;entryDy=0;exitX=1;exitY=0.5;exitDx=0;exitDy=0;edgeStyle=orthogonalEdgeStyle;" parent="1" source="hAyUHEkFQbPn4te4HX6G-167" target="hAyUHEkFQbPn4te4HX6G-180" edge="1">
          <mxGeometry x="0.0018" relative="1" as="geometry">
            <mxPoint x="530" y="2072" as="sourcePoint" />
            <mxPoint x="1568" y="1658" as="targetPoint" />
            <mxPoint as="offset" />
            <Array as="points">
              <mxPoint x="570" y="2085" />
              <mxPoint x="570" y="1750" />
            </Array>
          </mxGeometry>
        </mxCell>
        <mxCell id="hAyUHEkFQbPn4te4HX6G-182" value="" style="rounded=0;orthogonalLoop=1;jettySize=auto;html=1;entryX=0;entryY=0.5;entryDx=0;entryDy=0;exitX=1;exitY=0.5;exitDx=0;exitDy=0;" parent="1" source="hAyUHEkFQbPn4te4HX6G-155" target="hAyUHEkFQbPn4te4HX6G-173" edge="1">
          <mxGeometry x="0.0018" relative="1" as="geometry">
            <mxPoint x="529" y="1770" as="sourcePoint" />
            <mxPoint x="1568" y="1565" as="targetPoint" />
            <mxPoint as="offset" />
          </mxGeometry>
        </mxCell>
        <mxCell id="hAyUHEkFQbPn4te4HX6G-183" value="每日收入数据拉取任务" style="rounded=0;whiteSpace=wrap;html=1;fillColor=#60a917;fontColor=#ffffff;strokeColor=#2D7600;" parent="1" vertex="1">
          <mxGeometry x="1395" y="1553" width="120" height="30" as="geometry" />
        </mxCell>
        <mxCell id="hAyUHEkFQbPn4te4HX6G-184" value="" style="rounded=0;orthogonalLoop=1;jettySize=auto;html=1;entryX=0;entryY=0.5;entryDx=0;entryDy=0;exitX=1;exitY=0.5;exitDx=0;exitDy=0;" parent="1" source="hAyUHEkFQbPn4te4HX6G-154" target="hAyUHEkFQbPn4te4HX6G-183" edge="1">
          <mxGeometry x="0.0018" relative="1" as="geometry">
            <mxPoint x="520" y="1688" as="sourcePoint" />
            <mxPoint x="1568" y="1525" as="targetPoint" />
            <mxPoint as="offset" />
          </mxGeometry>
        </mxCell>
        <mxCell id="hAyUHEkFQbPn4te4HX6G-185" value="每日报告数据拉取任务" style="rounded=0;whiteSpace=wrap;html=1;fillColor=#60a917;fontColor=#ffffff;strokeColor=#2D7600;" parent="1" vertex="1">
          <mxGeometry x="1395" y="1691.5" width="120" height="30" as="geometry" />
        </mxCell>
        <mxCell id="hAyUHEkFQbPn4te4HX6G-186" value="" style="rounded=0;orthogonalLoop=1;jettySize=auto;html=1;exitX=1;exitY=0.5;exitDx=0;exitDy=0;entryX=0;entryY=0.5;entryDx=0;entryDy=0;edgeStyle=orthogonalEdgeStyle;" parent="1" source="hAyUHEkFQbPn4te4HX6G-99" target="hAyUHEkFQbPn4te4HX6G-185" edge="1">
          <mxGeometry relative="1" as="geometry">
            <mxPoint x="528" y="1580" as="sourcePoint" />
            <mxPoint x="1568" y="1445" as="targetPoint" />
            <Array as="points">
              <mxPoint x="550" y="2006" />
              <mxPoint x="550" y="1707" />
            </Array>
          </mxGeometry>
        </mxCell>
        <mxCell id="hAyUHEkFQbPn4te4HX6G-188" value="Kafka-GCP" style="fillColor=none;strokeColor=#5A6C86;verticalAlign=top;fontStyle=0;fontColor=#5A6C86;whiteSpace=wrap;html=1;" parent="1" vertex="1">
          <mxGeometry x="2575" y="2800" width="175" height="90" as="geometry" />
        </mxCell>
        <mxCell id="hAyUHEkFQbPn4te4HX6G-189" value="&lt;p style=&quot;margin: 0px; font-variant-numeric: normal; font-variant-east-asian: normal; font-variant-alternates: normal; font-size-adjust: none; font-kerning: auto; font-optical-sizing: auto; font-feature-settings: normal; font-variation-settings: normal; font-variant-position: normal; font-variant-emoji: normal; font-stretch: normal; line-height: normal; text-align: start;&quot; class=&quot;p1&quot;&gt;order-event-resul&lt;span style=&quot;background-color: transparent; color: light-dark(rgb(0, 0, 0), rgb(255, 255, 255));&quot;&gt;t&lt;/span&gt;&lt;/p&gt;" style="rounded=0;whiteSpace=wrap;html=1;movable=1;resizable=1;rotatable=1;deletable=1;editable=1;locked=0;connectable=1;" parent="1" vertex="1">
          <mxGeometry x="2600" y="2839" width="130" height="30" as="geometry" />
        </mxCell>
        <mxCell id="hAyUHEkFQbPn4te4HX6G-190" style="edgeStyle=orthogonalEdgeStyle;rounded=0;orthogonalLoop=1;jettySize=auto;html=1;exitX=0.5;exitY=1;exitDx=0;exitDy=0;" parent="1" source="hAyUHEkFQbPn4te4HX6G-189" target="hAyUHEkFQbPn4te4HX6G-189" edge="1">
          <mxGeometry relative="1" as="geometry" />
        </mxCell>
        <mxCell id="hAyUHEkFQbPn4te4HX6G-191" style="edgeStyle=orthogonalEdgeStyle;rounded=0;orthogonalLoop=1;jettySize=auto;html=1;exitX=0.5;exitY=1;exitDx=0;exitDy=0;" parent="1" source="hAyUHEkFQbPn4te4HX6G-189" target="hAyUHEkFQbPn4te4HX6G-189" edge="1">
          <mxGeometry relative="1" as="geometry" />
        </mxCell>
        <mxCell id="hAyUHEkFQbPn4te4HX6G-192" value="&lt;span style=&quot;text-align: left;&quot;&gt;订单打点分发worker与通用worker的区别&lt;/span&gt;&lt;div style=&quot;text-align: left;&quot;&gt;1、增加了去重逻辑&lt;/div&gt;&lt;div style=&quot;text-align: left;&quot;&gt;2、会给请求端发送响应消息&lt;/div&gt;&lt;div style=&quot;text-align: left;&quot;&gt;3、为了隔离影响，单独部署一套&lt;/div&gt;" style="whiteSpace=wrap;html=1;rounded=1;arcSize=50;align=center;verticalAlign=middle;strokeWidth=1;autosize=1;spacing=4;treeFolding=1;treeMoving=1;newEdgeStyle={&quot;edgeStyle&quot;:&quot;entityRelationEdgeStyle&quot;,&quot;startArrow&quot;:&quot;none&quot;,&quot;endArrow&quot;:&quot;none&quot;,&quot;segment&quot;:10,&quot;curved&quot;:1,&quot;sourcePerimeterSpacing&quot;:0,&quot;targetPerimeterSpacing&quot;:0};" parent="1" vertex="1">
          <mxGeometry x="2920" y="2178" width="260" height="80" as="geometry" />
        </mxCell>
        <mxCell id="hAyUHEkFQbPn4te4HX6G-193" value="" style="edgeStyle=entityRelationEdgeStyle;startArrow=none;endArrow=none;segment=10;curved=1;sourcePerimeterSpacing=0;targetPerimeterSpacing=0;rounded=0;exitX=0.5;exitY=0;exitDx=0;exitDy=0;" parent="1" source="hAyUHEkFQbPn4te4HX6G-145" target="hAyUHEkFQbPn4te4HX6G-192" edge="1">
          <mxGeometry relative="1" as="geometry">
            <mxPoint x="2643" y="2100" as="sourcePoint" />
          </mxGeometry>
        </mxCell>
        <mxCell id="hAyUHEkFQbPn4te4HX6G-194" value="" style="rounded=0;orthogonalLoop=1;jettySize=auto;html=1;entryX=1;entryY=0.5;entryDx=0;entryDy=0;exitX=1;exitY=0.5;exitDx=0;exitDy=0;edgeStyle=orthogonalEdgeStyle;" parent="1" source="hAyUHEkFQbPn4te4HX6G-196" target="hAyUHEkFQbPn4te4HX6G-188" edge="1">
          <mxGeometry relative="1" as="geometry">
            <mxPoint x="3320" y="2572" as="sourcePoint" />
            <mxPoint x="3585" y="2301" as="targetPoint" />
          </mxGeometry>
        </mxCell>
        <mxCell id="hAyUHEkFQbPn4te4HX6G-195" value="订单打点结果消息（订单打点新逻辑）" style="edgeLabel;html=1;align=center;verticalAlign=middle;resizable=0;points=[];" parent="hAyUHEkFQbPn4te4HX6G-194" vertex="1" connectable="0">
          <mxGeometry x="0.4057" y="1" relative="1" as="geometry">
            <mxPoint as="offset" />
          </mxGeometry>
        </mxCell>
        <mxCell id="hAyUHEkFQbPn4te4HX6G-196" value="" style="fillColor=none;strokeColor=#5A6C86;verticalAlign=top;fontStyle=0;fontColor=#5A6C86;whiteSpace=wrap;html=1;" parent="1" vertex="1">
          <mxGeometry x="3175" y="2292.66" width="150" height="307.34" as="geometry" />
        </mxCell>
        <mxCell id="hAyUHEkFQbPn4te4HX6G-197" value="" style="edgeStyle=orthogonalEdgeStyle;rounded=0;orthogonalLoop=1;jettySize=auto;html=1;exitX=0;exitY=0.5;exitDx=0;exitDy=0;entryX=1;entryY=0.5;entryDx=0;entryDy=0;" parent="1" source="hAyUHEkFQbPn4te4HX6G-188" target="hAyUHEkFQbPn4te4HX6G-115" edge="1">
          <mxGeometry relative="1" as="geometry">
            <mxPoint x="2107.23" y="3024" as="sourcePoint" />
            <mxPoint x="2107.23" y="2800" as="targetPoint" />
          </mxGeometry>
        </mxCell>
      </root>
    </mxGraphModel>
  </diagram>
</mxfile>
